<svg width="170" height="136" viewBox="0 0 170 136" fill="none" xmlns="http://www.w3.org/2000/svg">
<g clip-path="url(#clip0_3_5)">
<path d="M110.181 10.8348L76.1812 129.837C74.8797 134.353 70.1781 136.956 65.6625 135.681C61.1469 134.38 58.5437 129.678 59.8187 125.163L93.8188 6.16515C95.1203 1.65112 99.8219 -0.962627 104.337 0.327248C108.853 1.61686 111.456 6.32187 110.181 10.8348ZM137.753 32.2469L167.503 61.9969C170.823 65.3172 170.823 70.6828 167.503 74.0031L137.753 103.753C134.433 107.073 129.067 107.073 125.747 103.753C122.427 100.433 122.427 95.0672 125.747 91.7469L149.467 68L125.747 44.2531C122.427 40.9328 122.427 35.5672 125.747 32.2469C129.067 28.9266 134.433 28.9266 137.753 32.2469ZM44.2531 44.2531L20.5195 68L44.2531 91.7469C47.5734 95.0672 47.5734 100.433 44.2531 103.753C40.9328 107.073 35.5672 107.073 32.2469 103.753L2.48944 74.0031C-0.829813 70.6828 -0.829813 65.3172 2.48944 61.9969L32.2469 32.2469C35.5672 28.9266 40.9328 28.9266 44.2531 32.2469C47.5734 35.5672 47.5734 40.9328 44.2531 44.2531Z" fill="#32A2C4"/>
</g>
<defs>
<clipPath id="clip0_3_5">
<rect width="170" height="136" fill="white"/>
</clipPath>
</defs>
</svg>
