<svg width="48" height="48" viewBox="0 0 48 48" fill="none" xmlns="http://www.w3.org/2000/svg">
<path d="M48 0H0V48H48V0Z" fill="#969696"/>
<path d="M28.6533 21.3333H10.9693V25.6853H17.312V45.3333H22.3373V25.6853H28.6533V21.3333Z" fill="#141414"/>
<path d="M44.2587 26.7787C44.2587 26.7787 41.876 25.1893 39.1827 25.1893C36.4893 25.1893 35.52 26.4693 35.52 27.8374C35.52 31.368 45.3613 31.0147 45.3613 38.12C45.3613 49.0654 30.356 44.2107 30.356 44.2107V38.96C30.356 38.96 33.2253 41.1227 36.6667 41.1227C40.108 41.1227 39.9773 38.872 39.9773 38.5627C39.9773 35.2974 30.224 35.2974 30.224 28.0587C30.224 18.2173 44.4347 22.1 44.4347 22.1L44.2587 26.7787Z" fill="#141414"/>
</svg>
