<svg width="48" height="48" viewBox="0 0 48 48" fill="none" xmlns="http://www.w3.org/2000/svg">
<g clip-path="url(#clip0_6_42)">
<path d="M24 0L45.2119 12V36L24 48L2.78802 36V12L24 0Z" fill="white"/>
<path d="M41.4241 35.172L24.7 44.6319V37.264L35.1201 31.532L41.4241 35.172ZM42.5681 34.136V14.352L36.4481 17.884V30.6L42.5681 34.136ZM6.50802 35.172L23.232 44.6319V37.264L12.812 31.532L6.50802 35.172V35.172ZM5.36401 34.136V14.352L11.484 17.884V30.6L5.36401 34.136V34.136ZM6.08001 13.072L23.232 3.36801V10.492L12.244 16.536L12.16 16.584L6.08001 13.072V13.072ZM41.8521 13.072L24.7 3.36801V10.492L35.6881 16.536L35.7721 16.584L41.8521 13.072V13.072Z" fill="#C5C5C5"/>
<path d="M23.232 35.588L12.952 29.936V18.736L23.232 24.672V35.588ZM24.7 35.588L34.98 29.936V18.736L24.7 24.672V35.588ZM13.648 17.44L23.968 11.764L34.288 17.44L23.968 23.4L13.648 17.44" fill="#6E6E6E"/>
</g>
<defs>
<clipPath id="clip0_6_42">
<rect width="48" height="48" fill="white"/>
</clipPath>
</defs>
</svg>
